<svg width="14" height="14" viewBox="0 0 14 14" xmlns="http://www.w3.org/2000/svg" aria-describedby="fbsvg_alertclose_header">
			<title id="fbsvg_alertclose_header">Dismiss locale prompt</title>		  <path d="M1.626.353L7 5.727 12.374.353a.5.5 0 01.638-.058l.07.058.565.566a.5.5 0 010 .707L8.273 7l5.374 5.374a.5.5 0 010 .707l-.566.566a.5.5 0 01-.707 0L7 8.273l-5.374 5.374a.5.5 0 01-.638.058l-.07-.058-.565-.566a.5.5 0 010-.707L5.727 7 .353 1.626a.5.5 0 010-.707L.92.353a.5.5 0 01.707 0z" fill="currentColor" fill-rule="nonzero"></path>
		</svg>